<svg width="24" height="16" fill="none" xmlns="http://www.w3.org/2000/svg"><path d="M4.488 2.687h19.513l-1.943 9.238H9.69l-5.2-9.238zM20.168 16c1.027 0 1.86-.808 1.86-1.805 0-.997-.833-1.805-1.86-1.805-1.027 0-1.86.808-1.86 1.805 0 .997.833 1.805 1.86 1.805zM11.426 16c1.027 0 1.86-.808 1.86-1.805 0-.997-.833-1.805-1.86-1.805-1.027 0-1.86.808-1.86 1.805 0 .997.833 1.805 1.86 1.805z" fill="#fff"/><path d="M1 0a1 1 0 000 2H2.86a1 1 0 01.697.282l6.702 6.505a1 1 0 001.393 0l.02-.02a1 1 0 000-1.435L4.412.282A1 1 0 003.715 0H1z" fill="#fff"/></svg>