<svg width="58" height="46" fill="none" xmlns="http://www.w3.org/2000/svg"><path d="M57.747 44.049L44.551 26.954a20.81 20.81 0 004.33-7.14c.127-.357.23-.716.33-1.074l.067-.24a1.21 1.21 0 00-.83-1.496 1.207 1.207 0 00-1.493.831l-.07.249c-.086.305-.17.61-.28.913a18.397 18.397 0 01-3.561 6.005l-7.452-9.654c.633-1.59.688-3.326.097-4.944a6.894 6.894 0 00-2.583-3.36l2.5-5.317A1.208 1.208 0 1033.42.695l-2.501 5.32a6.912 6.912 0 00-1.839-.26 7.08 7.08 0 00-6.38 4.043 6.942 6.942 0 00-.241 5.363c.022.062.06.115.083.176L.256 43.917a1.212 1.212 0 00.952 1.955c.358 0 .714-.16.953-.465L15.3 28.554c1.992 1.734 4.234 3.082 6.717 3.963a20.992 20.992 0 007.036 1.216c5.067 0 9.945-1.85 13.739-5.099L55.836 45.53a1.205 1.205 0 001.695.217c.528-.409.625-1.17.216-1.698zM22.825 30.235c-2.234-.793-4.25-2.014-6.035-3.589l7.105-9.112a7.045 7.045 0 002.2 1.598 6.875 6.875 0 002.972.665c1.983 0 3.844-.85 5.16-2.26l7.088 9.183c-4.911 4.262-11.927 5.844-18.49 3.515z" fill="#4F4F4F"/></svg>