<svg width="58" height="46" viewBox="0 0 46 40" fill="none" xmlns="http://www.w3.org/2000/svg"><path d="M27.28 0L11.7 11.053H0v17.894h11.7L27.28 40V0zm11.148 5.247a1.08 1.08 0 00-.63.248 1.038 1.038 0 00-.282 1.235c.096.209.257.38.46.49 3.264 1.828 5.885 6.804 5.885 12.78 0 5.976-2.621 10.935-5.884 12.763-.245.14-.423.37-.496.64a1.04 1.04 0 00.107.797 1.086 1.086 0 001.458.389C43.28 32.218 46 26.565 46 20c0-6.565-2.721-12.234-6.953-14.605a1.084 1.084 0 00-.619-.148zm-5.583 4.21a1.08 1.08 0 00-.635.242 1.037 1.037 0 00-.293 1.238c.094.21.256.383.46.494 2.01 1.169 3.761 4.511 3.761 8.569 0 4.058-1.751 7.384-3.76 8.553a1.072 1.072 0 00-.501.645 1.042 1.042 0 00.111.805 1.066 1.066 0 00.659.489 1.09 1.09 0 00.817-.114C36.45 28.64 38.278 24.624 38.278 20c0-4.624-1.827-8.657-4.814-10.395a1.084 1.084 0 00-.619-.148z" fill="#4F4F4F"/></svg>