<svg width="22" height="17" fill="none" xmlns="http://www.w3.org/2000/svg"><path d="M19.421 2.693c.988-.577 1.642-1.366 1.962-2.368a10.95 10.95 0 01-2.873 1.002C17.65.447 16.563 0 15.258 0c-1.275 0-2.352.426-3.23 1.255-.425.394-.76.866-.987 1.387a3.975 3.975 0 00-.329 1.646c0 .36.048.681.143.954-3.759-.123-6.87-1.608-9.322-4.468-.416.7-.623 1.413-.623 2.15 0 1.514.67 2.715 2.01 3.596-.764-.062-1.437-.246-2.01-.547 0 1.082.333 1.985 1.002 2.78a4.468 4.468 0 002.585 1.503 5.047 5.047 0 01-1.197.138c-.381 0-.651-.03-.811-.097a4.12 4.12 0 001.577 2.144 4.607 4.607 0 002.63.865c-1.628 1.216-3.489 1.818-5.595 1.818-.515 0-.88-.007-1.102-.044C2.074 16.363 4.383 17 6.937 17c2.614 0 4.924-.631 6.934-1.893 2.01-1.255 3.495-2.804 4.448-4.627a12.06 12.06 0 001.432-5.696V4.24A9.277 9.277 0 0022 2.003c-.823.34-1.69.572-2.579.69z" fill="#4F4F4F"/></svg>