<svg width="58" height="46" viewBox="0 0 44 44" fill="none" xmlns="http://www.w3.org/2000/svg"><path d="M22 10.732c-6.213 0-11.269 5.055-11.269 11.269 0 6.213 5.056 11.268 11.269 11.268s11.269-5.055 11.269-11.268c0-6.214-5.056-11.27-11.269-11.27zM22 8.85c.39 0 .706-.317.706-.706V.706a.706.706 0 00-1.412 0v7.438c0 .39.316.706.706.706zM22 35.15a.706.706 0 00-.706.706v7.438a.706.706 0 001.412 0v-7.438A.706.706 0 0022 35.15zM11.704 12.701a.704.704 0 00.998 0 .705.705 0 000-.998l-5.26-5.259a.705.705 0 10-.998.998l5.26 5.26zM32.298 31.3a.705.705 0 10-.999.997l5.26 5.26a.704.704 0 00.998 0 .705.705 0 000-.999l-5.26-5.259zM31.798 12.908c.18 0 .361-.069.5-.207l5.258-5.259a.705.705 0 10-.998-.998l-5.26 5.26a.705.705 0 00.5 1.204zM11.704 31.3l-5.26 5.258a.705.705 0 10.999.998l5.26-5.258a.705.705 0 10-1-.999zM43.294 21.294h-7.437a.706.706 0 000 1.412h7.437a.706.706 0 000-1.412zM8.85 22a.706.706 0 00-.706-.706H.706a.706.706 0 000 1.412h7.437c.39 0 .707-.316.707-.706z" fill="#4F4F4F"/></svg>