<svg width="58" height="46" viewBox="0 0 46 36" fill="none" xmlns="http://www.w3.org/2000/svg"><path d="M23 0C14.422 0 6.551 2.918.412 7.627a1.072 1.072 0 00-.196 1.489 1.039 1.039 0 001.47.199A35 35 0 0123 2.117a35 35 0 0121.314 7.196 1.039 1.039 0 001.47-.198 1.073 1.073 0 00-.196-1.49C39.448 2.919 31.578 0 23 0zm0 10.059c-6.147 0-11.878 1.885-16.333 5.526a1.052 1.052 0 00-.465.722 1.072 1.072 0 00.219.833 1.047 1.047 0 00.758.392 1.032 1.032 0 00.795-.31c4.048-3.308 9.301-5.046 15.026-5.046s10.978 1.738 15.026 5.046a1.045 1.045 0 00.795.31 1.034 1.034 0 00.758-.392 1.065 1.065 0 00.063-1.245 1.052 1.052 0 00-.31-.31C34.879 11.943 29.148 10.059 23 10.059zm0 9.53c-3.753 0-7.319 1.19-10.061 3.39a1.076 1.076 0 00-.168 1.494 1.042 1.042 0 001.474.177c2.342-1.878 5.444-2.944 8.755-2.944 3.31 0 6.413 1.066 8.754 2.945a1.042 1.042 0 001.475-.177 1.076 1.076 0 00-.168-1.494c-2.742-2.201-6.308-3.392-10.061-3.392zm0 10.058c-1.732 0-3.136 1.422-3.136 3.177C19.864 34.578 21.268 36 23 36c1.732 0 3.136-1.422 3.136-3.176 0-1.755-1.404-3.177-3.136-3.177z" fill="#4F4F4F"/></svg>